<?xml version="1.0" encoding="UTF-8"?>
<svg viewBox="0 -20 440 360" role="img" aria-label="خريطة المملكة العربية السعودية بمواقع المستودعات" direction="ltr" xmlns="http://www.w3.org/2000/svg" width="880" height="720"><defs><filter id="sh" x="-20%" y="-40%" width="140%" height="180%"><feDropShadow dx="0" dy="1" stdDeviation="1.5" flood-color="#004956" flood-opacity=".15"></feDropShadow></filter></defs><path d="M13 64.8 L35.4 68.2 L44 62 L64 52 L74 42 L54 22 L94 12 L98 9 L122 14 L142 24 L156 30 L208 68 L244 70 L268 82 L282 81 L290 98 L300 110 L316 118 L318 128 L316 140 L326 152 L330 157 L346 167 L354 192 L414 198 L428 212 L414 252 L354 272 L296 280 L278 288 L254 312 L242 308 L218 304 L194 304 L182 302 L176 318 L170 324 L166 316 L158 296 L138 272 L124 248 L106 226 L96 212 L84 180 L64 160 L58 148 L44 132 L24 102 L10 90 L6 84 Z" fill="#d6f5eb" stroke="#fff" stroke-width="3"></path><circle cx="248.4" cy="158.2" r="46" fill="#f2663a" opacity=".12"></circle><circle cx="248.4" cy="158.2" r="24" fill="#f2663a" opacity=".15"></circle>
    <path d="M248.4 158.2 Q172.9 148.2 97.4 221.2" fill="none" stroke="#004956" stroke-width="2" stroke-dasharray="2 6" stroke-linecap="round"></path>
    <circle cx="97.4" cy="221.2" r="6" fill="#004956" stroke="#fff" stroke-width="2.5"></circle><g><rect  x="80.83000000000001" y="194.2" width="33.14" height="18" rx="5" fill="#fff" filter="url(#sh)"></rect><text font-family="IBM Plex Sans Arabic, PingARLT, sans-serif" font-size="11" font-weight="600" x="97.4" y="207.2" text-anchor="middle" direction="rtl" style="fill:#004956;unicode-bidi:embed">جدة</text></g>
    <g transform="translate(152.9 134.2)"><ellipse cx="18" cy="24" rx="24" ry="4" fill="#004956" opacity=".12"></ellipse><rect x="0" y="0" width="26" height="18" rx="3" fill="#fff" stroke="#004956" stroke-width="1.5"></rect><path d="M26 6 h8 l6 6 v6 h-14 Z" fill="#004956"></path><rect x="30" y="8" width="5" height="4" fill="#a8f0dc"></rect><circle cx="8" cy="20" r="3.6" fill="#1f2a2e"></circle><circle cx="32" cy="20" r="3.6" fill="#1f2a2e"></circle><text x="13" y="12.5" text-anchor="middle" direction="rtl" style="font:700 7.5px 'PingARLT','IBM Plex Sans Arabic','PT Sans',system-ui,sans-serif;fill:#004956;unicode-bidi:embed">سلة</text></g><g><path d="M282.4 160.2 l14 -7 l14 7 l-14 7 Z" fill="#f3dcbc"></path><path d="M282.4 160.2 l14 7 l0 14 l-14 -7 Z" fill="#e8c9a0"></path><path d="M296.4 167.2 l14 -7 l0 14 l-14 7 Z" fill="#d8b384"></path><path d="M289.4 156.7 l14 7 l0 4" stroke="#fff" stroke-width="1.6" fill="none" opacity=".7"></path></g><g><path d="M302.4 170.2 l11.200000000000001 -5.6000000000000005 l11.200000000000001 5.6000000000000005 l-11.200000000000001 5.6000000000000005 Z" fill="#f3dcbc"></path><path d="M302.4 170.2 l11.200000000000001 5.6000000000000005 l0 11.200000000000001 l-11.200000000000001 -5.6000000000000005 Z" fill="#e8c9a0"></path><path d="M313.59999999999997 175.79999999999998 l11.200000000000001 -5.6000000000000005 l0 11.200000000000001 l-11.200000000000001 5.6000000000000005 Z" fill="#d8b384"></path><path d="M308 167.39999999999998 l11.200000000000001 5.6000000000000005 l0 3.2" stroke="#fff" stroke-width="1.2800000000000002" fill="none" opacity=".7"></path></g><g><path d="M288.4 144.2 l9.799999999999999 -4.8999999999999995 l9.799999999999999 4.8999999999999995 l-9.799999999999999 4.8999999999999995 Z" fill="#f3dcbc"></path><path d="M288.4 144.2 l9.799999999999999 4.8999999999999995 l0 9.799999999999999 l-9.799999999999999 -4.8999999999999995 Z" fill="#e2bf92"></path><path d="M298.2 149.1 l9.799999999999999 -4.8999999999999995 l0 9.799999999999999 l-9.799999999999999 4.8999999999999995 Z" fill="#d8b384"></path><path d="M293.29999999999995 141.75 l9.799999999999999 4.8999999999999995 l0 2.8" stroke="#fff" stroke-width="1.1199999999999999" fill="none" opacity=".7"></path></g><g transform="translate(248.4 158.2)"><ellipse cx="0" cy="4" rx="22" ry="6" fill="#004956" opacity=".15"></ellipse>
    <path d="M0 0 C -8 -14 -30 -30 -30 -54 A30 30 0 1 1 30 -54 C30 -30 8 -14 0 0 Z" fill="#004956"></path><circle cx="0" cy="-54" r="21" fill="#fff"></circle><g><ellipse cx="0" cy="-44" rx="16.72" ry="3.8" fill="#004956" opacity=".12"></ellipse>
   <path d="M-15.2 -56.45 L0 -51.7 L0 -41.25 L-15.2 -46 Z" fill="#004956"></path>
   <path d="M0 -51.7 L15.2 -56.45 L15.2 -46 L0 -41.25 Z" fill="#004956" opacity=".78"></path>
   <path d="M-15.2 -56.45 L0 -58.35 L15.2 -56.45 L0 -51.7 Z" fill="#a8f0dc"></path>
   <path d="M-9.424 -47.9 L-3.8 -46.285 L-3.8 -51.7 L-9.424 -53.22 Z" fill="#a8f0dc" opacity=".9"></path></g></g>
    <g><rect x="152.65" y="34.19999999999999" width="175.5" height="22" rx="11" fill="#fff" filter="url(#sh)"></rect><text x="240.4" y="49.69999999999999" text-anchor="middle" direction="rtl" style="font:600 11px 'PingARLT','IBM Plex Sans Arabic','PT Sans',system-ui,sans-serif;fill:#f2663a;unicode-bidi:embed">محلي إكسبريس · خلال ساعات</text></g>
    <g transform="translate(300 240)"><rect width="128" height="58" rx="12" fill="#fff" filter="url(#sh)"></rect><text x="116" y="22" text-anchor="start" direction="rtl" style="font:700 11px 'PingARLT','IBM Plex Sans Arabic','PT Sans',system-ui,sans-serif;fill:#004956;unicode-bidi:embed">طلب #1042</text><text x="116" y="42" text-anchor="start" direction="rtl" style="font:500 10px 'PingARLT','IBM Plex Sans Arabic','PT Sans',system-ui,sans-serif;fill:#4b5a5f;unicode-bidi:embed">خرج من مستودع الرياض</text><circle cx="16" cy="29" r="8" fill="#e3f7ee"></circle><path d="M12 29 l3 3 l5 -6" stroke="#0f9f6e" stroke-width="1.8" fill="none"></path></g></svg>