<?xml version="1.0" encoding="UTF-8"?>
<svg xmlns="http://www.w3.org/2000/svg" viewBox="20 10 480 320" role="img" aria-label="رسم مسطّح لخريطة مستودعات سلة" direction="ltr" width="960" height="640"><defs><mask id="perf"><rect x="0" y="0" width="520" height="360" fill="#fff"></rect><g fill="#000"><circle cx="40" cy="30" r="6"></circle><circle cx="40" cy="300" r="6"></circle><circle cx="57" cy="30" r="6"></circle><circle cx="57" cy="300" r="6"></circle><circle cx="74" cy="30" r="6"></circle><circle cx="74" cy="300" r="6"></circle><circle cx="91" cy="30" r="6"></circle><circle cx="91" cy="300" r="6"></circle><circle cx="108" cy="30" r="6"></circle><circle cx="108" cy="300" r="6"></circle><circle cx="125" cy="30" r="6"></circle><circle cx="125" cy="300" r="6"></circle><circle cx="142" cy="30" r="6"></circle><circle cx="142" cy="300" r="6"></circle><circle cx="159" cy="30" r="6"></circle><circle cx="159" cy="300" r="6"></circle><circle cx="176" cy="30" r="6"></circle><circle cx="176" cy="300" r="6"></circle><circle cx="193" cy="30" r="6"></circle><circle cx="193" cy="300" r="6"></circle><circle cx="210" cy="30" r="6"></circle><circle cx="210" cy="300" r="6"></circle><circle cx="227" cy="30" r="6"></circle><circle cx="227" cy="300" r="6"></circle><circle cx="244" cy="30" r="6"></circle><circle cx="244" cy="300" r="6"></circle><circle cx="261" cy="30" r="6"></circle><circle cx="261" cy="300" r="6"></circle><circle cx="278" cy="30" r="6"></circle><circle cx="278" cy="300" r="6"></circle><circle cx="295" cy="30" r="6"></circle><circle cx="295" cy="300" r="6"></circle><circle cx="312" cy="30" r="6"></circle><circle cx="312" cy="300" r="6"></circle><circle cx="329" cy="30" r="6"></circle><circle cx="329" cy="300" r="6"></circle><circle cx="346" cy="30" r="6"></circle><circle cx="346" cy="300" r="6"></circle><circle cx="363" cy="30" r="6"></circle><circle cx="363" cy="300" r="6"></circle><circle cx="380" cy="30" r="6"></circle><circle cx="380" cy="300" r="6"></circle><circle cx="40" cy="30" r="6"></circle><circle cx="380" cy="30" r="6"></circle><circle cx="40" cy="47" r="6"></circle><circle cx="380" cy="47" r="6"></circle><circle cx="40" cy="64" r="6"></circle><circle cx="380" cy="64" r="6"></circle><circle cx="40" cy="81" r="6"></circle><circle cx="380" cy="81" r="6"></circle><circle cx="40" cy="98" r="6"></circle><circle cx="380" cy="98" r="6"></circle><circle cx="40" cy="115" r="6"></circle><circle cx="380" cy="115" r="6"></circle><circle cx="40" cy="132" r="6"></circle><circle cx="380" cy="132" r="6"></circle><circle cx="40" cy="149" r="6"></circle><circle cx="380" cy="149" r="6"></circle><circle cx="40" cy="166" r="6"></circle><circle cx="380" cy="166" r="6"></circle><circle cx="40" cy="183" r="6"></circle><circle cx="380" cy="183" r="6"></circle><circle cx="40" cy="200" r="6"></circle><circle cx="380" cy="200" r="6"></circle><circle cx="40" cy="217" r="6"></circle><circle cx="380" cy="217" r="6"></circle><circle cx="40" cy="234" r="6"></circle><circle cx="380" cy="234" r="6"></circle><circle cx="40" cy="251" r="6"></circle><circle cx="380" cy="251" r="6"></circle><circle cx="40" cy="268" r="6"></circle><circle cx="380" cy="268" r="6"></circle><circle cx="40" cy="285" r="6"></circle><circle cx="380" cy="285" r="6"></circle></g></mask></defs><rect x="40" y="30" width="340" height="270" fill="#fff" mask="url(#perf)" stroke="none"></rect><rect x="56" y="46" width="308" height="238" fill="#d2f6ea"></rect>
    <path d="M78.1 92.2 L91.9 94.3 L97.3 90.4 L109.7 84.2 L115.9 78 L103.5 65.6 L128.3 59.4 L130.8 57.6 L145.6 60.7 L158 66.9 L166.7 70.6 L199 94.2 L221.3 95.4 L236.2 102.8 L244.8 102.2 L249.8 112.8 L256 120.2 L265.9 125.2 L267.2 131.4 L265.9 138.8 L272.1 146.2 L274.6 149.3 L284.5 155.5 L289.5 171 L326.7 174.8 L335.4 183.4 L326.7 208.2 L289.5 220.6 L253.5 225.6 L242.4 230.6 L227.5 245.4 L220 243 L205.2 240.5 L190.3 240.5 L182.8 239.2 L179.1 249.2 L175.4 252.9 L172.9 247.9 L168 235.5 L155.6 220.6 L146.9 205.8 L135.7 192.1 L129.5 183.4 L122.1 163.6 L109.7 151.2 L106 143.8 L97.3 133.8 L84.9 115.2 L76.2 107.8 L73.7 104.1 Z" fill="#fff" stroke="#004956" stroke-width="1.4"></path><path d="M224 150.1 C221.9 145.2 217 138.9 217 133.3 A7 7 0 1 1 231 133.3 C231 138.9 226.1 145.2 224 150.1 Z" fill="#f2663a"></path><circle cx="224" cy="133.3" r="2.8" fill="#fff"></circle><path d="M130.4 189.1 C128.3 184.2 123.4 177.9 123.4 172.3 A7 7 0 1 1 137.4 172.3 C137.4 177.9 132.5 184.2 130.4 189.1 Z" fill="#004956"></path><circle cx="130.4" cy="172.3" r="2.8" fill="#fff"></circle><path d="M265.9 128.5 C263.8 123.6 258.9 117.3 258.9 111.7 A7 7 0 1 1 272.9 111.7 C272.9 117.3 268 123.6 265.9 128.5 Z" fill="#004956"></path><circle cx="265.9" cy="111.7" r="2.8" fill="#fff"></circle><path d="M135.8 152.8 C133.7 147.9 128.8 141.6 128.8 136 A7 7 0 1 1 142.8 136 C142.8 141.6 137.9 147.9 135.8 152.8 Z" fill="#004956"></path><circle cx="135.8" cy="136" r="2.8" fill="#fff"></circle><path d="M171.7 230.3 C169.6 225.4 164.7 219.1 164.7 213.5 A7 7 0 1 1 178.7 213.5 C178.7 219.1 173.8 225.4 171.7 230.3 Z" fill="#004956"></path><circle cx="171.7" cy="213.5" r="2.8" fill="#fff"></circle><text x="352" y="270" text-anchor="start" direction="rtl" font-family="IBM Plex Sans Arabic, PingARLT, sans-serif" font-size="20" font-weight="700" fill="#004956" style="unicode-bidi:embed">4 ر.س</text><text x="70" y="270" text-anchor="end" direction="rtl" font-family="IBM Plex Sans Arabic, PingARLT, sans-serif" font-size="10" font-weight="600" fill="#4b5a5f" style="unicode-bidi:embed">المملكة العربية السعودية</text><g transform="rotate(-14 400 90)" opacity=".85"><circle cx="400" cy="90" r="46" fill="none" stroke="#f2663a" stroke-width="3"></circle><circle cx="400" cy="90" r="36" fill="none" stroke="#f2663a" stroke-width="1.5"></circle><text x="400" y="86" text-anchor="middle" direction="rtl" font-family="IBM Plex Sans Arabic, PingARLT, sans-serif" font-size="16" font-weight="700" fill="#f2663a" style="unicode-bidi:embed">سلة</text><text x="400" y="104" text-anchor="middle" direction="rtl" font-family="IBM Plex Sans Arabic, PingARLT, sans-serif" font-size="9" font-weight="700" fill="#f2663a" style="unicode-bidi:embed">مستودعات</text>
    <path d="M310 70 q12 -8 24 0 t24 0 t24 0 M310 84 q12 -8 24 0 t24 0 t24 0 M310 98 q12 -8 24 0 t24 0 t24 0" fill="none" stroke="#f2663a" stroke-width="2"></path></g><rect x="405.8" y="251.6" width="48.4" height="48.4" rx="4.4" fill="#e9c38f"></rect><rect x="405.8" y="251.6" width="48.4" height="13.2" rx="4.4" fill="#d6a766"></rect><rect x="423.4" y="251.6" width="13.2" height="48.4" fill="#f6e2c2"></rect><rect x="408" y="268" width="30" height="16" rx="2" fill="#fff"></rect><text x="423" y="280" text-anchor="middle" direction="rtl" font-family="IBM Plex Sans Arabic, PingARLT, sans-serif" font-size="9" font-weight="700" fill="#004956" style="unicode-bidi:embed">سلة</text></svg>