<?xml version="1.0" encoding="UTF-8"?>
<svg xmlns="http://www.w3.org/2000/svg" viewBox="-34 -21 502 371" role="img" aria-label="رسم مسطّح لخريطة مستودعات سلة" direction="ltr" width="1004" height="742"><defs></defs><path d="M13 64.8 L35.4 68.2 L44 62 L64 52 L74 42 L54 22 L94 12 L98 9 L122 14 L142 24 L156 30 L208 68 L244 70 L268 82 L282 81 L290 98 L300 110 L316 118 L318 128 L316 140 L326 152 L330 157 L346 167 L354 192 L414 198 L428 212 L414 252 L354 272 L296 280 L278 288 L254 312 L242 308 L218 304 L194 304 L182 302 L176 318 L170 324 L166 316 L158 296 L138 272 L124 248 L106 226 L96 212 L84 180 L64 160 L58 148 L44 132 L24 102 L10 90 L6 84 Z" fill="#eafaf5" stroke="#d2f6ea" stroke-width="2"></path><path d="M248.4 158.2 L215.6 125.4 L193.4 125.4" fill="none" stroke="#f2663a" stroke-width="5" stroke-linecap="round" stroke-linejoin="round"></path><path d="M193.4 125.4 L169.6 101.6 L147.8 101.6" fill="none" stroke="#f2663a" stroke-width="5" stroke-linecap="round" stroke-linejoin="round"></path><path d="M248.4 158.2 L262.2 144.4 L305.8 144.4" fill="none" stroke="#f2663a" stroke-width="5" stroke-linecap="round" stroke-linejoin="round"></path><path d="M97.4 221.2 L99.8 223.6 L110.6 223.6" fill="none" stroke="#004956" stroke-width="5" stroke-linecap="round" stroke-linejoin="round"></path><path d="M110.6 223.6 L113.6 226.6 L122.4 226.6" fill="none" stroke="#004956" stroke-width="5" stroke-linecap="round" stroke-linejoin="round"></path><path d="M97.4 221.2 L106.2 212.4 L106.2 162.6" fill="none" stroke="#004956" stroke-width="5" stroke-linecap="round" stroke-linejoin="round"></path><path d="M106.2 162.6 L45.4 101.8 L45.4 84.4" fill="none" stroke="#004956" stroke-width="5" stroke-linecap="round" stroke-linejoin="round"></path><path d="M316 123.4 L305.8 133.6 L305.8 144.4" fill="none" stroke="#2aa38a" stroke-width="5" stroke-linecap="round" stroke-linejoin="round"></path><path d="M164 287.6 L165 288.6 L165 314.2" fill="none" stroke="#8a6cd1" stroke-width="5" stroke-linecap="round" stroke-linejoin="round"></path><path d="M248.4 158.2 L164 242.6 L164 287.6" fill="none" stroke="#8a6cd1" stroke-width="5" stroke-linecap="round" stroke-linejoin="round"></path><circle cx="193.4" cy="125.4" r="4.5" fill="#fff" stroke="#1f2a2e" stroke-width="2"></circle><text x="193.4" y="115.4" text-anchor="middle" direction="rtl" font-family="IBM Plex Sans Arabic, PingARLT, sans-serif" font-size="9.5" font-weight="600" fill="#4b5a5f" style="unicode-bidi:embed">بريدة</text><circle cx="147.8" cy="101.6" r="4.5" fill="#fff" stroke="#1f2a2e" stroke-width="2"></circle><text x="147.8" y="91.6" text-anchor="middle" direction="rtl" font-family="IBM Plex Sans Arabic, PingARLT, sans-serif" font-size="9.5" font-weight="600" fill="#4b5a5f" style="unicode-bidi:embed">حائل</text><circle cx="305.8" cy="144.4" r="4.5" fill="#fff" stroke="#1f2a2e" stroke-width="2"></circle><text x="305.8" y="160.4" text-anchor="middle" direction="rtl" font-family="IBM Plex Sans Arabic, PingARLT, sans-serif" font-size="9.5" font-weight="600" fill="#4b5a5f" style="unicode-bidi:embed">الأحساء</text><circle cx="110.6" cy="223.6" r="4.5" fill="#fff" stroke="#1f2a2e" stroke-width="2"></circle><text x="110.6" y="240.6" text-anchor="middle" direction="rtl" font-family="IBM Plex Sans Arabic, PingARLT, sans-serif" font-size="9.5" font-weight="600" fill="#4b5a5f" style="unicode-bidi:embed">مكة المكرمة</text><circle cx="122.4" cy="226.6" r="4.5" fill="#fff" stroke="#1f2a2e" stroke-width="2"></circle><text x="130.4" y="230.6" text-anchor="end" direction="rtl" font-family="IBM Plex Sans Arabic, PingARLT, sans-serif" font-size="9.5" font-weight="600" fill="#4b5a5f" style="unicode-bidi:embed">الطائف</text><circle cx="45.4" cy="84.4" r="4.5" fill="#fff" stroke="#1f2a2e" stroke-width="2"></circle><text x="53.4" y="88.4" text-anchor="end" direction="rtl" font-family="IBM Plex Sans Arabic, PingARLT, sans-serif" font-size="9.5" font-weight="600" fill="#4b5a5f" style="unicode-bidi:embed">تبوك</text><circle cx="165" cy="314.2" r="4.5" fill="#fff" stroke="#1f2a2e" stroke-width="2"></circle><text x="173" y="318.2" text-anchor="end" direction="rtl" font-family="IBM Plex Sans Arabic, PingARLT, sans-serif" font-size="9.5" font-weight="600" fill="#4b5a5f" style="unicode-bidi:embed">جازان</text><rect x="239.4" y="149.2" width="18" height="18" rx="5" fill="#fff" stroke="#f2663a" stroke-width="3"></rect><text x="248.4" y="184.2" text-anchor="middle" direction="rtl" font-family="IBM Plex Sans Arabic, PingARLT, sans-serif" font-size="10.5" font-weight="700" fill="#f2663a" style="unicode-bidi:embed">الرياض</text><rect x="88.4" y="212.2" width="18" height="18" rx="5" fill="#fff" stroke="#004956" stroke-width="3"></rect><text x="84.4" y="225.2" text-anchor="start" direction="rtl" font-family="IBM Plex Sans Arabic, PingARLT, sans-serif" font-size="10.5" font-weight="700" fill="#004956" style="unicode-bidi:embed">جدة</text><rect x="307" y="114.4" width="18" height="18" rx="5" fill="#fff" stroke="#004956" stroke-width="3"></rect><text x="316" y="108.4" text-anchor="middle" direction="rtl" font-family="IBM Plex Sans Arabic, PingARLT, sans-serif" font-size="10.5" font-weight="700" fill="#004956" style="unicode-bidi:embed">الدمام</text><rect x="97.2" y="153.6" width="18" height="18" rx="5" fill="#fff" stroke="#004956" stroke-width="3"></rect><text x="93.2" y="166.6" text-anchor="start" direction="rtl" font-family="IBM Plex Sans Arabic, PingARLT, sans-serif" font-size="10.5" font-weight="700" fill="#004956" style="unicode-bidi:embed">المدينة المنورة</text><rect x="155" y="278.6" width="18" height="18" rx="5" fill="#fff" stroke="#004956" stroke-width="3"></rect><text x="151" y="291.6" text-anchor="start" direction="rtl" font-family="IBM Plex Sans Arabic, PingARLT, sans-serif" font-size="10.5" font-weight="700" fill="#004956" style="unicode-bidi:embed">أبها</text></svg>