<?xml version="1.0" encoding="UTF-8"?>
<svg xmlns="http://www.w3.org/2000/svg" viewBox="10 20 440 350" role="img" aria-label="رسم مجسّم لخريطة مستودعات سلة" direction="ltr" width="880" height="700"><defs>
<linearGradient id="gTop" x1="0" y1="0" x2="1" y2="1"><stop offset="0" stop-color="#f1fdf9"></stop><stop offset=".55" stop-color="#d4f6ea"></stop><stop offset="1" stop-color="#b7ecdb"></stop></linearGradient>
<linearGradient id="gTopDark" x1="0" y1="0" x2="1" y2="1"><stop offset="0" stop-color="#1b7d8c"></stop><stop offset="1" stop-color="#0a5866"></stop></linearGradient>
<linearGradient id="gBrand" x1="0" y1="0" x2="1" y2="1"><stop offset="0" stop-color="#157a8a"></stop><stop offset="1" stop-color="#003a45"></stop></linearGradient>
<linearGradient id="gOrange" x1="0" y1="0" x2="1" y2="1"><stop offset="0" stop-color="#ffa379"></stop><stop offset="1" stop-color="#dc4a1f"></stop></linearGradient>
<linearGradient id="gMint" x1="0" y1="0" x2="1" y2="1"><stop offset="0" stop-color="#c9f8eb"></stop><stop offset="1" stop-color="#63d6b8"></stop></linearGradient>
<linearGradient id="gWallL" x1="0" y1="0" x2="0" y2="1"><stop offset="0" stop-color="#ffffff"></stop><stop offset="1" stop-color="#e2ebed"></stop></linearGradient>
<linearGradient id="gWallR" x1="0" y1="0" x2="0" y2="1"><stop offset="0" stop-color="#d3e1e4"></stop><stop offset="1" stop-color="#b3c7cc"></stop></linearGradient>
<linearGradient id="gBoxT" x1="0" y1="0" x2="1" y2="1"><stop offset="0" stop-color="#fbe8cc"></stop><stop offset="1" stop-color="#f0d1a3"></stop></linearGradient>
<linearGradient id="gBoxL" x1="0" y1="0" x2="0" y2="1"><stop offset="0" stop-color="#ebc48e"></stop><stop offset="1" stop-color="#dcae6e"></stop></linearGradient>
<linearGradient id="gBoxR" x1="0" y1="0" x2="0" y2="1"><stop offset="0" stop-color="#d4a262"></stop><stop offset="1" stop-color="#bb864a"></stop></linearGradient>
<radialGradient id="gShine" cx=".32" cy=".3" r=".7"><stop offset="0" stop-color="#fff" stop-opacity=".75"></stop><stop offset=".4" stop-color="#fff" stop-opacity=".12"></stop><stop offset="1" stop-color="#fff" stop-opacity="0"></stop></radialGradient>
<linearGradient id="gGlass" x1="0" y1="0" x2="1" y2="1"><stop offset="0" stop-color="#fff" stop-opacity=".92"></stop><stop offset="1" stop-color="#fff" stop-opacity=".62"></stop></linearGradient>
<linearGradient id="gArc" x1="0" y1="0" x2="1" y2="0"><stop offset="0" stop-color="#63d6b8"></stop><stop offset="1" stop-color="#f2663a"></stop></linearGradient>
<filter id="blur8" x="-50%" y="-50%" width="200%" height="200%"><feGaussianBlur stdDeviation="8"></feGaussianBlur></filter>
<filter id="blur3" x="-50%" y="-50%" width="200%" height="200%"><feGaussianBlur stdDeviation="3"></feGaussianBlur></filter>
<filter id="sh" x="-20%" y="-40%" width="140%" height="180%"><feDropShadow dx="0" dy="3" stdDeviation="3" flood-color="#004956" flood-opacity=".18"></feDropShadow></filter></defs><ellipse cx="210" cy="348" rx="100" ry="16" fill="#003a45" opacity="0.2" filter="url(#blur3)"></ellipse><g transform="matrix(1 .16 -.22 1 150 40)"><rect x="8" y="8" width="150" height="290" rx="24" fill="#00323c"></rect><rect x="0" y="0" width="150" height="290" rx="24" fill="#16323a"></rect><rect x="7" y="7" width="136" height="276" rx="18" fill="#f4fbf9"></rect>
     <rect x="53" y="12" width="44" height="7" rx="3.5" fill="#16323a"></rect><text x="132" y="44" text-anchor="start" direction="rtl" font-family="IBM Plex Sans Arabic, PingARLT, sans-serif" font-size="11" font-weight="700" fill="#004956" style="unicode-bidi:embed">تتبع طلبك</text><ellipse cx="77.1" cy="170.5" rx="53.2" ry="14" fill="#003a45" opacity="0.22" filter="url(#blur3)"></ellipse><polygon points="15.9,94.5 22.6,95.4 25.2,93.7 31.2,91 34.2,88.3 28.2,82.9 40.2,80.2 41.4,79.4 48.6,80.8 54.6,83.5 58.8,85.1 74.4,95.4 85.2,95.9 92.4,99.1 96.6,98.9 99,103.5 102,106.7 106.8,108.9 107.4,111.6 106.8,114.8 109.8,118 111,119.4 115.8,122.1 118.2,128.8 136.2,130.5 140.4,134.2 136.2,145 118.2,150.4 100.8,152.6 95.4,154.8 88.2,161.2 84.6,160.2 77.4,159.1 70.2,159.1 66.6,158.5 64.8,162.9 63,164.5 61.8,162.3 59.4,156.9 53.4,150.4 49.2,144 43.8,138 40.8,134.2 37.2,125.6 31.2,120.2 29.4,117 25.2,112.6 19.2,104.5 15,101.3 13.8,99.7" fill="#3fa88d"></polygon><polygon points="15.9,92.5 22.6,93.4 25.2,91.7 31.2,89 34.2,86.3 28.2,80.9 40.2,78.2 41.4,77.4 48.6,78.8 54.6,81.5 58.8,83.1 74.4,93.4 85.2,93.9 92.4,97.1 96.6,96.9 99,101.5 102,104.7 106.8,106.9 107.4,109.6 106.8,112.8 109.8,116 111,117.4 115.8,120.1 118.2,126.8 136.2,128.5 140.4,132.2 136.2,143 118.2,148.4 100.8,150.6 95.4,152.8 88.2,159.2 84.6,158.2 77.4,157.1 70.2,157.1 66.6,156.5 64.8,160.9 63,162.5 61.8,160.3 59.4,154.9 53.4,148.4 49.2,142 43.8,136 40.8,132.2 37.2,123.6 31.2,118.2 29.4,115 25.2,110.6 19.2,102.5 15,99.3 13.8,97.7" fill="#7fcdb8"></polygon><polygon points="15.9,91.5 22.6,92.4 25.2,90.7 31.2,88 34.2,85.3 28.2,79.9 40.2,77.2 41.4,76.4 48.6,77.8 54.6,80.5 58.8,82.1 74.4,92.4 85.2,92.9 92.4,96.1 96.6,95.9 99,100.5 102,103.7 106.8,105.9 107.4,108.6 106.8,111.8 109.8,115 111,116.4 115.8,119.1 118.2,125.8 136.2,127.5 140.4,131.2 136.2,142 118.2,147.4 100.8,149.6 95.4,151.8 88.2,158.2 84.6,157.2 77.4,156.1 70.2,156.1 66.6,155.5 64.8,159.9 63,161.5 61.8,159.3 59.4,153.9 53.4,147.4 49.2,141 43.8,135 40.8,131.2 37.2,122.6 31.2,117.2 29.4,114 25.2,109.6 19.2,101.5 15,98.3 13.8,96.7" fill="#d4f6ea" stroke="#fff" stroke-width="1.6" stroke-linejoin="round"></polygon><ellipse cx="86.5" cy="117.7" rx="5.5" ry="1.9" fill="#003a45" opacity="0.25" filter="url(#blur3)"></ellipse><path d="M86.5 116.7 C84.3 111.8 79.4 105.7 79.4 100.2 A7.2 7.2 0 1 1 93.7 100.2 C93.7 105.7 88.7 111.8 86.5 116.7 Z" fill="url(#gOrange)"></path>
   <circle cx="86.5" cy="100.2" r="7.2" fill="url(#gShine)"></circle><circle cx="86.5" cy="100.2" r="2.9" fill="#fff"></circle>
     <rect x="16" y="194" width="118" height="72" rx="12" fill="#fff" filter="url(#sh)"></rect><text x="124" y="220" text-anchor="start" direction="rtl" font-family="IBM Plex Sans Arabic, PingARLT, sans-serif" font-size="10" font-weight="700" fill="#dc4a1f" style="unicode-bidi:embed">محلي إكسبريس</text><text x="124" y="240" text-anchor="start" direction="rtl" font-family="IBM Plex Sans Arabic, PingARLT, sans-serif" font-size="11" font-weight="700" fill="#004956" style="unicode-bidi:embed">يصلك اليوم قبل 9 م</text><rect x="26" y="250" width="98" height="6" rx="3" fill="#e3eeee"></rect><rect x="64" y="250" width="60" height="6" rx="3" fill="#63d6b8"></rect></g><ellipse cx="62" cy="239" rx="32" ry="10" fill="#003a45" opacity="0.16" filter="url(#blur3)"></ellipse><polygon points="62,238 27.4,218 27.4,184 62,204" fill="url(#gBoxL)" stroke="none"></polygon><polygon points="62,238 96.6,218 96.6,184 62,204" fill="url(#gBoxR)" stroke="none"></polygon><polygon points="62,204 96.6,184 62,164 27.4,184" fill="url(#gBoxT)" stroke="none"></polygon><line x1="44.7" y1="194" x2="79.3" y2="174" stroke="#fff5e6" stroke-width="6" opacity=".85"></line>
   <line x1="44.7" y1="194" x2="44.7" y2="228" stroke="#f3dcb6" stroke-width="6" opacity=".8"></line><ellipse cx="360" cy="151" rx="18" ry="6.1" fill="#003a45" opacity="0.25" filter="url(#blur3)"></ellipse><path d="M360 150 C352.8 133.8 336.6 114 336.6 96 A23.4 23.4 0 1 1 383.4 96 C383.4 114 367.2 133.8 360 150 Z" fill="url(#gBrand)"></path>
   <circle cx="360" cy="96" r="23.4" fill="url(#gShine)"></circle><circle cx="360" cy="96" r="9.4" fill="#fff"></circle><ellipse cx="372" cy="285.1" rx="15.4" ry="4.4" fill="#003a45" opacity="0.18" filter="url(#blur3)"></ellipse><circle cx="375.9" cy="264.2" r="18.7" fill="#0a5866"></circle><circle cx="372" cy="262" r="18.7" fill="url(#gBrand)"></circle><circle cx="372" cy="262" r="14.3" fill="#fff"></circle>
  <path d="M372 262 V253.2 M372 262 L378.6 265.3" stroke="#f2663a" stroke-width="2.4" stroke-linecap="round"></path><circle cx="372" cy="262" r="2" fill="#004956"></circle><circle cx="372" cy="262" r="18.7" fill="url(#gShine)"></circle><g filter="url(#sh)"><rect x="300.6" y="66" width="118.8" height="23" rx="11.5" fill="#fff"></rect></g><text x="360" y="82" text-anchor="middle" direction="rtl" font-family="IBM Plex Sans Arabic, PingARLT, sans-serif" font-size="10.5" font-weight="700" fill="#004956" style="unicode-bidi:embed">من مستودع الرياض</text></svg>